#N canvas 0 0 560 420 12;
#X text 20 15 One voice: list degree velocity -> readsf~ (wav/nD_vLL.wav);
#X obj 80 50 inlet;
#X obj 80 85 unpack float float;
#X obj 80 115 f;
#X obj 180 115 moses 1;
#X obj 180 150 t b f;
#X obj 80 200 pack float float;
#X obj 80 235 unpack float float;
#X obj 200 235 expr max(1 \, min(16 \, 1 + int($f1 * 15 / 127)));
#X obj 80 275 pack float float;
#X obj 80 315 makefilename ../wav/n%01d_v%02d.wav;
#X msg 80 355 open \$1 \, start;
#X obj 80 395 readsf~;
#X obj 200 395 outlet~;
#X connect 1 0 2 0;
#X connect 2 0 3 0;
#X connect 2 1 4 0;
#X connect 4 1 5 0;
#X connect 5 0 3 0;
#X connect 5 1 6 1;
#X connect 3 0 6 0;
#X connect 6 0 7 0;
#X connect 7 0 9 0;
#X connect 7 1 8 0;
#X connect 8 0 9 1;
#X connect 9 0 10 0;
#X connect 10 0 11 0;
#X connect 11 0 12 0;
#X connect 12 0 13 0;
