#N canvas 0 0 920 580 12;
#X text 20 20 OSC: listen UDP 9000 [/from-of int int] | send UDP 9001 [/to-of-rms float];
#X text 20 40 Requires iemnet (udpreceive udpsend). Deken: search iemnet. Pd 0.52+ oscparse oscformat.;
#X text 20 60 Run setup-samples.sh first. Open THIS patch (not main.pd) for OSC.;
#X declare -path abstractions;
#X obj 40 130 udpreceive 9000;
#X obj 40 160 oscparse;
#X obj 40 190 route /from-of;
#X obj 40 230 penta-voice;
#X obj 40 290 hip~ 8;
#X obj 40 330 lop~ 6200;
#X obj 40 370 dac~;
#X obj 320 290 env~ 2048;
#X obj 320 340 snapshot~ 50;
#X obj 320 250 metro 50 1;
#X obj 320 390 oscformat /to-of-rms f;
#X obj 320 430 udpsend;
#X obj 560 130 loadbang;
#X obj 560 170 t b b;
#X msg 560 210 connect 127.0.0.1 9001;
#X msg 560 250 \; pd dsp 1;
#X connect 4 0 5 0;
#X connect 5 0 6 0;
#X connect 6 0 7 0;
#X connect 7 0 8 0;
#X connect 8 0 9 0;
#X connect 9 0 10 0;
#X connect 9 0 10 1;
#X connect 9 0 11 0;
#X connect 11 0 12 0;
#X connect 13 0 12 1;
#X connect 12 0 14 0;
#X connect 14 0 15 0;
#X connect 16 0 17 0;
#X connect 17 0 18 0;
#X connect 17 1 19 0;
#X connect 18 0 15 0;
