#N canvas 0 0 820 520 12;
#X text 20 20 Pentatonic: C4 D#4 F#4 A4 C5 (degrees 0-4) x 16 velocity layers;
#X text 20 38 Send [send from-of] list degree velocity | Receive [receive to-of-rms];
#X text 20 56 Run setup-samples.sh then open this patch. Turn DSP on.;
#X declare -path abstractions;
#X obj 40 110 r from-of;
#X obj 40 150 penta-voice;
#X obj 40 210 hip~ 8;
#X obj 40 250 lop~ 6200;
#X obj 40 290 dac~;
#X obj 260 210 env~ 2048;
#X obj 260 260 snapshot~ 50;
#X obj 260 170 metro 50 1;
#X obj 260 300 s to-of-rms;
#X obj 520 110 loadbang;
#X msg 520 150 \; pd dsp 1;
#X text 260 330 RMS ~0-1 for FFT/glow in C++;
#X connect 4 0 5 0;
#X connect 5 0 6 0;
#X connect 6 0 7 0;
#X connect 7 0 8 0;
#X connect 7 0 8 1;
#X connect 7 0 9 0;
#X connect 9 0 10 0;
#X connect 11 0 10 1;
#X connect 10 0 12 0;
#X connect 13 0 14 0;
